<svg xmlns="http://www.w3.org/2000/svg" width="1024" height="1024"><path d="m923.672 698.298-144.793-16.531c-34.772-3.99-68.974 7.98-93.486 32.492L580.506 819.144C419.186 737.06 286.937 605.381 204.852 443.49l105.456-105.457c24.511-24.512 36.483-58.714 32.492-93.486l-16.531-143.65C319.429 43.323 270.975 0 212.832 0h-98.616C49.802 0-3.782 53.584.208 117.998c30.212 486.814 419.547 875.581 905.786 905.789 64.417 3.994 117.996-49.593 117.996-114.003v-98.619c.575-57.573-42.748-106.027-100.32-112.868z"/></svg>

